<svg xmlns="http://www.w3.org/2000/svg" viewBox="0 0 498.31 395.46"><defs><style>.cls-1{fill:#F00A0A;}</style></defs><g id="Layer_2" data-name="Layer 2"><g id="Layer_1-2" data-name="Layer 1"><path class="cls-1" d="M264.35,371.38c-2.06,2.9-3.77,5.54-5.72,8-4.33,5.44-9.67,9-16.94,9.41-8.47.45-13.35-5.53-15-10.89-.48-1.59-.86-3.2-1.49-5.55a43.46,43.46,0,0,1-3.05,4.31c-2.94,3.15-5.66,6.64-9.08,9.18a16.13,16.13,0,0,1-23.5-5,33.72,33.72,0,0,1-4.82-14.12c-1.23-12.07-.88-24.1,3.83-35.53a47.07,47.07,0,0,1,5.58-10c7.47-10.09,19.14-12.57,30.29-6.68,2.34,1.23,4.59,2.65,7.14,4.14,2.66-4.13,6.19-6.66,11-7.15A25.59,25.59,0,0,1,258,314.81a15.18,15.18,0,0,1,3.84,3.16,3.44,3.44,0,0,1,.07,5c-9.28,10.92-12.33,24.19-14.23,37.88a11,11,0,0,0,1.33,7.7c3.3.55,4.54-2,5.93-3.89a96.31,96.31,0,0,0,12.8-24.31c2.56-7.23,4.72-14.6,7.49-21.75A12.07,12.07,0,0,1,280,313a24.09,24.09,0,0,1,8.41-3,34.1,34.1,0,0,1,24.09,4.5c6.11,3.7,7.09,7.54,3.07,13.25-4.37,6.21-4.24,12.83-2.77,19.68.8,3.73,2,7.37,3.24,11.68,4.24-4.67,7.17-9.62,10.41-14.35a23.49,23.49,0,0,0,3.65-10.74c1.25-10.26,3-20.47,4.52-30.71.17-1.14.32-2.29.48-3.44-1.85-1.59-3.93-.88-5.85-1-5.19-.26-7.3-2-7.77-7.17a17,17,0,0,1,.44-5.46c.88-3.73,2.41-4.94,6.26-5.22,3.65-.27,7.3-.43,11.14-.65,1.31-3.59,2.56-7,3.82-10.45,2.51-6.81,7.4-9.84,14.64-9.85,6.08,0,11.63,1.27,16.34,5.21,3.34,2.79,3.38,4.25,1.07,8.09-1.18,2-2.08,4.12-3.32,6.6,1.6.26,2.69.47,3.79.61,4.18.54,5.08,1.47,5.3,5.76a24.38,24.38,0,0,1-.05,4c-.65,6.08-2.78,8.11-8.91,8.55-2,.13-4,.18-6.41.29-2,7.89-4.14,15.58-5.75,23.4q-3.66,17.64-6.61,35.43c-.64,3.75-.39,7.67-.41,11.51a15.56,15.56,0,0,0,.77,3.35c3,.17,4-2,5.19-3.65a131.7,131.7,0,0,0,14.71-28.92,102.69,102.69,0,0,1,8.25-17c4-6.53,10.21-10.45,17.75-12.08,16-3.47,28.26,7.89,25.39,24A43.81,43.81,0,0,1,420,348.29c-5.69,10.4-12.48,13-23.86,9.62,0,4.88,1.18,9.28,4.23,13,2.39,2.94,5.25,3.61,8.41,1.55a34.48,34.48,0,0,0,6.79-5.86c6.51-7.34,10.91-16,14.46-25a6.8,6.8,0,0,0,.1-5.3c-2.2-5.52-1.63-11.15,0-16.72,2.43-8.45,11.08-11,17.62-5.1,1.25,1.11,2.49,2.23,3.74,3.33a.6.6,0,0,0,.26.13c5.57-1.66,10.91-3.69,16.43-4.81,11.62-2.34,16.62,2.92,13,14.16-2.06,6.45-5.52,12.48-8.6,18.57s-6.41,11.7-9.49,17.63c-1.18,2.28-3.38,5.39-.75,7.23,3,2.12,5.05-1.49,6.82-3.38,6.9-7.36,12.06-16,17-24.71.41-.73.79-1.47,1.17-2.21,2.84-5.53,4-6,10.95-4.22a35.91,35.91,0,0,1-1.21,5,133.37,133.37,0,0,1-22.7,38.13c-5.82,6.85-13.26,10.41-22.47,10.11-9.68-.32-16.66-7.78-16.15-18.43.27-5.63,2.32-10.74,5-15.62,2.55-4.7,5.24-9.31,7.83-14a18,18,0,0,0,.88-2.24c-5.62-1.58-8.28-.28-10.46,4.4-3.94,8.46-7.78,17-12.2,25.19a42.94,42.94,0,0,1-13.85,15c-9.05,6.17-18.66,7.9-28.85,2.92-6.12-3-9.26-8.46-11.53-14.55-.58-1.53-1.07-3.08-1.84-5.32-2.69,4.15-5,7.75-7.33,11.33-2.61,4-5.84,7.37-10.28,9.27a25.05,25.05,0,0,1-7.14,2.06c-9.18.95-15.59-4.12-16.83-13.25-.56-4.13-.7-8.31-1-12.47-.09-1.12-.2-2.24-.37-4.13-1.19,1.41-1.92,2.24-2.61,3.11-4.46,5.64-8.93,11.27-13.35,16.93-5.25,6.74-12.38,9.5-20.63,9.43-11.41-.09-20.49-4.31-25.34-15.37A20.63,20.63,0,0,0,264.35,371.38Zm-35-41.33c-5.13-4.41-8.12-4.48-12.21-.51a21.33,21.33,0,0,0-3.29,4.36,44.33,44.33,0,0,0-5.66,17.93,39.59,39.59,0,0,0,.12,9.42,5.86,5.86,0,0,0,2.59,3.83c1.9,1.07,3.4-.55,4.62-2a12.56,12.56,0,0,0,1.66-2.47,100.67,100.67,0,0,0,4.59-9.4C224.5,344.14,226.93,336.93,229.37,330.05Zm51.77,7.71c-2.37,6.3-4.43,11.68-6.39,17.1a4.43,4.43,0,0,0,0,2.45c1.27,5,3.79,9.24,8.2,12.11,2.44,1.58,5.14,2.81,8,1.17,3.11-1.81,2.4-5.06,1.81-7.68C290.7,354.05,286,346.4,281.14,337.76Zm131.41-12c-7.72,1.49-16.28,14.5-14.84,22.56C405.07,347.06,414.1,333.33,412.55,325.8Z"/><path class="cls-1" d="M114.15,276.74c-2.79,6.94-5.66,13.85-8.35,20.84-8,20.71-15.6,41.56-21.37,63-1.81,6.74-3,13.68-4.23,20.56a15.44,15.44,0,0,0,.33,5c.67,4.67-.89,7.33-5.47,8.56-7.89,2.11-15-.07-21.16-4.9a25.83,25.83,0,0,1-10.23-19.83,94.22,94.22,0,0,1,2.66-27.85c4.47-17.95,9.64-35.73,14.44-53.6,1.51-5.64,2.84-11.33,4.12-17a19.37,19.37,0,0,0,.34-5c-.15-3.45-2.37-5-5.34-3.26a23.64,23.64,0,0,0-6.49,6.05c-4.79,6.32-7.67,13.66-10.31,21.06a196.23,196.23,0,0,0-9.28,36.31,93.69,93.69,0,0,0-.48,10.48c0,1.13,0,2.27,0,3.38-3.34,1.66-6.28.41-9-.59a40.57,40.57,0,0,1-17.49-12.2C.71,320.27-1.85,312,1.44,302.53c7.5-21.63,20.23-39,40.59-50.24,8.35-4.61,17.32-7.25,26.86-6.82a35.33,35.33,0,0,1,12,2.89A18.64,18.64,0,0,1,92,269.3c-2.84,13.54-6.26,27-9.7,40.38-3.9,15.19-8.13,30.29-12.15,45.45a35.53,35.53,0,0,0-.59,5.29l1.16.39a58.89,58.89,0,0,0,2.85-5.88c5.45-15.25,10.77-30.53,16.2-45.78q10-28.06,20.08-56.08c.28-.79.65-1.54,1-2.3,3.06-6.52,6.31-8.09,13.27-6A27,27,0,0,1,139.08,256c2.83,4.2,2.67,8.87,1.35,13.52-4,14.13-8,28.25-12.07,42.37-1.55,5.46-3.14,10.9-4.65,16.37a7.09,7.09,0,0,0,.13,4.58c1.39-2.78,2.87-5.51,4.14-8.34,9.45-21.2,18.83-42.44,28.32-63.62,1.84-4.11,3.94-8.12,6.18-12,2-3.52,4.11-4.31,8-3.21,8.36,2.37,14.32,7.73,18.3,15.33a10.8,10.8,0,0,1,.68,7.79c-3.64,15.27-7.53,30.49-10.59,45.87s-5.35,30.93-7.75,46.44a148.35,148.35,0,0,0-1.42,16.46,38.25,38.25,0,0,0,.77,9.43c.89,4.18.07,6.31-3.95,7.51a19.64,19.64,0,0,1-13.26-.65c-9.41-3.75-13.53-11.31-13.77-20.81a115.77,115.77,0,0,1,1.56-21.92c3.15-19,9.62-37.12,16.12-55.19,1.66-4.63,3.22-9.3,4.83-13.95l-1.11-.54c-1.15,1.92-2.44,3.77-3.43,5.77a523.51,523.51,0,0,0-21.86,51.08c-4.45,11.9-8.85,23.8-11,36.37a93.72,93.72,0,0,0-.64,9.59c-3.36,2.44-7.63,1-11.54-.55-10.71-4.11-17.29-15.91-15.85-27.46,2.1-16.78,6-33.15,10.45-49.43q3.81-14,7.61-28a15.32,15.32,0,0,0,.28-1.8Z"/><path class="cls-1" d="M278.41,84.54a18.61,18.61,0,0,0-2.78,3.21c-6.14,11.42-9.41,23.54-8.26,36.59.32,3.67.87,7.77,5.05,9,3.9,1.18,6.68-1.68,9-4.32a111.14,111.14,0,0,0,20.05-32.74c2.5-6.42,5.36-12.64,10.1-17.76a27.39,27.39,0,0,1,24.9-9c9.51,1.27,16.65,10.35,16,20.61-.52,8.18-3.24,15.74-9,21.83a27.08,27.08,0,0,1-6.76,5,10.59,10.59,0,0,1-10.12.38,20.39,20.39,0,0,0-3-.9,17.83,17.83,0,0,0,3.59,12.5c2.48,3.46,5.67,4.25,9.13,1.77a42.87,42.87,0,0,0,8.35-7.85,84.07,84.07,0,0,0,12.57-22.71,7.52,7.52,0,0,0,0-5.78c-2.37-6.27-1.47-12.55.95-18.56,2.34-5.82,10.72-7.75,15.68-3.82,1.69,1.34,3.18,2.94,5.12,4.75,2.34-.85,4.79-1.78,7.27-2.66,4.73-1.69,9.5-3.13,14.64-2.87,6.11.31,9.16,3.72,8.58,9.75-.53,5.43-2.64,10.35-5.14,15.07-3.2,6-6.69,12-10,18-1.6,2.93-3.06,5.93-4.55,8.92a8.17,8.17,0,0,0-.7,6.14c2.25,1.39,3.83.3,5.08-1a67.39,67.39,0,0,0,7.55-8.68c4.61-7,8.93-14.1,13.17-21.29,2.58-4.39,4.56-5.28,10.4-3.43a29.44,29.44,0,0,1-.91,4.56c-5,14-12.74,26.46-22.09,37.93A29.23,29.23,0,0,1,384.14,148c-10.78,1.91-21.46-4.87-21.09-17.28a31.89,31.89,0,0,1,3.62-13.93c2.46-4.74,5.15-9.36,7.7-14.06.85-1.56,1.58-3.19,2.39-4.84-5.11-1.58-8.6-.1-10.44,4-3.22,7.15-6.22,14.42-9.78,21.4a53.17,53.17,0,0,1-15.68,18.66c-6.14,4.57-13,7-20.64,6.13-11-1.31-18.2-8.09-21.11-19.29-.28-1.11-.49-2.24-1-4.33-1.34,1.66-2.2,2.71-3.06,3.76-3.8,4.65-7.22,9.7-11.49,13.87-7.53,7.33-20.5,9-30,4.51a20.05,20.05,0,0,1-10.78-12c-1.09-3.12-1.86-6.35-3-10.26-1.31,1.78-2.3,3.24-3.41,4.6-3.58,4.4-6.85,9.12-10.88,13.07-7.46,7.3-20.52,9-30,4.59-8.58-4-11.46-11.64-13.11-20.11-.22-1.14-.34-2.3-.53-3.44,0-.15-.18-.27-.53-.74-.85.65-1.71,1.28-2.54,2-1,.84-1.93,2-3.11,2.52-6.21,2.45-9.77,7.7-13.9,12.47-6.52,7.51-14.77,11.51-24.91,10.19-12.34-1.6-17.78-8.31-20.64-20.16a55.09,55.09,0,0,1,2.75-33.94,41.32,41.32,0,0,0,1.88-5.7c3.24-13.59,17.76-22.45,31.88-21.5C166,69,174,76.53,176.16,89.53a46.11,46.11,0,0,1,.12,16.93,38.74,38.74,0,0,0-.29,5.38c4.22-1.72,6-4.7,6.9-8.36a68.13,68.13,0,0,1,7.73-20,34.2,34.2,0,0,1,9.74-10.65c8.66-5.94,22-5.1,29.9,1.8A13.65,13.65,0,0,1,235,82.67a31.12,31.12,0,0,1-2.47,19.06c-2.14,4.54-5.27,4.31-8.79,3.36s-4.69-3.57-4-7.53c.42-2.47,1-4.9,1.43-7.38.27-1.75.3-3.54.44-5.32l-1-.48c-1.13,1.31-2.55,2.46-3.34,3.94-6.11,11.47-9.1,23.67-7.89,36.7.32,3.33,1,6.93,4.69,8.26s6.51-1.13,8.7-3.63c8.64-9.86,16-20.56,20.12-33.18a53.81,53.81,0,0,1,10.48-19.23c8.09-9.16,19.53-10.28,29.27-6.18,7.41,3.12,11.13,8.66,11,16.82-.09,5.1-.88,10-3.3,14.51-1.66,3.08-4.48,3.94-8.2,2.82-3.25-1-4.79-3.24-4.34-6.85.35-2.81,1.05-5.58,1.49-8.38.25-1.61.28-3.25.42-4.87ZM148.29,90c3.65,5.21,3.65,5.21-.9,10.34-.22.25-.46.49-.66.75-5.37,6.85-8.88,14.47-9,23.29a13.18,13.18,0,0,0,1.78,6.53c1.37,2.34,3.51,2.49,5.48.65,2.79-2.6,5.48-5.31,5.42-9.66a9.31,9.31,0,0,1,4-8.16,3.41,3.41,0,0,0,1.37-1.4c1.91-5.51,3.76-11.07,2.65-17C157.44,89.62,154.11,87.94,148.29,90Zm192-5.47c-7.88,1-15.86,12.83-15.48,22.28,3.74.52,5.75-2.09,7.66-4.46C336.6,97.23,340,91.68,340.25,84.56Z"/><path class="cls-1" d="M61.18,49.44C44,47.51,34.15,62.72,39.53,82.59A16.15,16.15,0,0,1,36,84.51,41,41,0,0,1,9,82.82C3.41,80.45.51,76.49.72,69.93,1.27,52.68,12.2,38.55,29.54,33.1c9.79-3.09,19.73-3.05,29.77-2.25,1,.08,2,.22,3.24.36.5-1.07,1-2.05,1.43-3.08C68.79,15.88,76.82,6.76,89.34,2A32.22,32.22,0,0,1,106.61.56c5.8,1,9.84,4.82,12.74,9.75C127.2,23.65,122.5,46.07,103,51.73a27.26,27.26,0,0,1-5.94.7c-2.15.12-4.3,0-6.94,0,0,1.35-.28,2.52,0,3.48,2,5.66,3.83,11.38,6.19,16.88,3.94,9.21,8.42,18.25,10,28.24,2.67,17.48.29,33.63-13.06,46.74-15.15,14.88-49.07,16.76-64.49-6.54a37.28,37.28,0,0,1-5.63-28.71,16.48,16.48,0,0,1,7.18-10.5C37,97.34,44.6,96.85,52.4,98c1.09.16,2.08,1,3.58,1.7-.28,1.77-.68,3.52-.83,5.29-.61,7.4,1.2,14,7.2,18.8,5.8,4.62,13.5,2,15.57-5a26.47,26.47,0,0,0,.66-11.39C77.41,99.08,74,91.62,71,84.06c-3.44-8.53-6.59-17.12-8.48-26.14C61.92,55.18,61.63,52.37,61.18,49.44ZM91.57,34.65c3.91,2.27,7.52,1.69,11,.43a12,12,0,0,0,7.55-12.78c-.69-3.92-3.29-5.32-6.93-3.66a10.37,10.37,0,0,0-2.49,1.65A28.9,28.9,0,0,0,91.57,34.65Z"/><path class="cls-1" d="M204.66,220.32c.57-23.23,18.61-44.91,46.09-44.24,24.08.59,43.5,19.17,43.45,44.75-.05,27.35-21.5,44.91-44.95,45C224.67,265.87,204.49,245.13,204.66,220.32Zm68.11,21.14c1.81-5-1.26-7.81-5.88-9.72a5.91,5.91,0,0,1-1.29-.74c-1.68-1.3-3.28-1-5.1-.15-3.73,1.82-7.53,3.52-11.37,5.13a5.79,5.79,0,0,0-3.69,4.84c-1.6,9.3-2.49,7,4.69,12.73.66.52,1.37,1,2,1.54,1.69,1.62,3.45,1.57,5.48.58,3.74-1.81,7.47-3.69,11.37-5.12,3-1.11,4.16-3,3.83-6C272.7,243.71,272.77,242.87,272.77,241.46Zm-3.84-41.06c-1.08-3.33-2.17-6.48-3.1-9.67a4.39,4.39,0,0,0-3.68-3.53c-5.22-1-10.41-2.21-15.84-3.38-2.41,2.89-4.88,5.61-7,8.56a4.68,4.68,0,0,0-.51,3.63c2.37,7.52,4,8.82,11.74,10a9.32,9.32,0,0,1,2.47.35c6.26,3,10.79.34,14.7-4.42C268,201.59,268.3,201.2,268.93,200.4Zm-33.63-5.52c-3.38.19-7.18.35-11,.65a3,3,0,0,0-2.12,1c-2.75,4.54-5.56,9.07-7.94,13.82-1.12,2.23,5.66,11.63,8.2,11.91,7.26.81,9-.12,12.61-6.61.4-.73.85-1.44,1.25-2.16,4.81-8.66,4.81-8.66.06-17.5C236.26,195.73,236,195.54,235.3,194.88Zm-6.57,56.24c2-.34,3.63-.58,5.25-.91,8.63-1.72,9.37-2.51,9.75-11.27a5.59,5.59,0,0,0-1.14-3.57q-4.35-5.16-9.12-10a5.71,5.71,0,0,0-3.46-1.5,33.5,33.5,0,0,0-6.47.41c-.92.13-2.32.57-2.56,1.22-1.38,3.73-2.55,7.55-3.6,11.39-.17.6.47,1.58,1,2.18C221.79,243.16,225.3,247.16,228.73,251.12Zm45.35-17.63c3.13-2.3,6.19-4.33,9-6.72a5.18,5.18,0,0,0,1.55-3.8c-.33-4.65-.94-9.3-1.71-13.9a5.53,5.53,0,0,0-2.14-3,12.76,12.76,0,0,0-3.25-1.25c-7.49-2.87-8.47-2.68-13.55,3.43a5.54,5.54,0,0,0-1.26,3.56c.34,4.65.88,9.3,1.58,13.92a5.16,5.16,0,0,0,1.92,3.2C268.63,230.64,271.33,232,274.08,233.49Zm-21.94,29.33c8.95.82,22.44-5.26,26.05-11.64-4.85-1.14-1.67-2-20.39,6.43C255.28,258.75,253.21,260.1,252.14,262.82Zm38.11-32.93c3.44-6.51,1.76-21.47-2.93-26.75a6.49,6.49,0,0,0-2.22,6.63,98.59,98.59,0,0,1,1.35,12.35A10.8,10.8,0,0,0,290.25,229.89Zm-21-45.44-.09-1.32c-7.77-4-15.93-5.8-24.84-3.73,5.93,4.5,13.32,4.26,20,6.14C265.78,185.94,267.62,184.85,269.27,184.45ZM227.5,257a6.26,6.26,0,0,0-1.68-6.27q-4.63-5.26-9.19-10.6a7.1,7.1,0,0,0-6-2.8A36.3,36.3,0,0,0,227.5,257ZM220,190.2c-6.25,6.13-10.36,12.93-11.36,21.48,5.85-3.36,7.34-9.83,10.81-14.85A6,6,0,0,0,220,190.2Z"/></g></g></svg>